<svg xmlns="http://www.w3.org/2000/svg" width="43.272" height="55.078" viewBox="13.377 11.295 43.272 55.078"><g data-name="svgexport-6 - 2023-03-06T153745.799"><path d="M51.142 18.511h-4.983v-2.229c0-.721-.787-1.049-1.508-1.049h-3.868c-.918-2.623-3.213-3.934-5.835-3.934a5.966 5.966 0 0 0-5.836 3.934H25.31c-.722 0-1.443.328-1.443 1.05v2.228h-4.983a5.573 5.573 0 0 0-5.507 5.31V61.39c0 2.885 2.622 4.983 5.507 4.983h32.258c2.885 0 5.507-2.098 5.507-4.983V23.822a5.573 5.573 0 0 0-5.507-5.31Zm-24.652-.655h3.606a1.443 1.443 0 0 0 1.246-1.18 3.803 3.803 0 0 1 3.606-2.95 3.737 3.737 0 0 1 3.54 2.95 1.442 1.442 0 0 0 1.311 1.18h3.737V23.1H26.49v-5.245ZM54.027 61.39c0 1.443-1.443 2.36-2.885 2.36H18.884c-1.442 0-2.885-.917-2.885-2.36V23.822a2.95 2.95 0 0 1 2.885-2.688h4.983v3.344c.07.734.706 1.284 1.443 1.245h19.34a1.442 1.442 0 0 0 1.509-1.245v-3.344h4.983a2.95 2.95 0 0 1 2.885 2.688V61.39Z" fill="#2563eb" fill-rule="evenodd" data-name="Path 2"/><path d="M29.965 40.606a1.311 1.311 0 0 0-1.836-.065l-4.196 4-1.77-1.837a1.311 1.311 0 0 0-1.836-.065 1.377 1.377 0 0 0 0 1.901l2.688 2.754c.232.26.568.405.917.393a1.31 1.31 0 0 0 .918-.393l5.114-4.852a1.245 1.245 0 0 0 0-1.836Zm18.816 2.82h-15.08a1.311 1.311 0 1 0 0 2.622h15.08a1.311 1.311 0 1 0 0-2.622Zm-18.816-13.31a1.311 1.311 0 0 0-1.836-.065l-4.196 4-1.77-1.837a1.311 1.311 0 0 0-1.836-.065 1.377 1.377 0 0 0 0 1.901l2.688 2.754c.232.26.568.404.917.393a1.31 1.31 0 0 0 .918-.393l5.114-4.852a1.245 1.245 0 0 0 0-1.836Zm18.816 2.82h-15.08a1.311 1.311 0 1 0 0 2.622h15.08a1.311 1.311 0 1 0 0-2.623Zm-18.816 18.16a1.312 1.312 0 0 0-1.836-.065l-4.196 4-1.77-1.836a1.311 1.311 0 0 0-1.836-.066 1.377 1.377 0 0 0 0 1.901l2.688 2.754c.232.26.568.405.917.394a1.31 1.31 0 0 0 .918-.394l5.114-4.852a1.245 1.245 0 0 0 0-1.836Zm18.816 2.82h-15.08a1.311 1.311 0 1 0 0 2.622h15.08a1.311 1.311 0 1 0 0-2.622Z" fill="#2563eb" fill-rule="evenodd" data-name="Path 3"/></g></svg>