<svg xmlns="http://www.w3.org/2000/svg" width="44.322" height="51.458" viewBox="13 13 44.322 51.458"><g data-name="svgexport-7 - 2023-03-06T155134.438"><path d="M41.17 15.003h-6.01v3.756h4.132v7.074c0 6.213-5.055 11.268-11.268 11.268-6.213 0-11.268-5.055-11.268-11.268V18.76h4.007v-3.756h-5.885c-1.037 0-1.878.84-1.878 1.878v8.952c0 8.285 6.74 15.024 15.024 15.024 8.285 0 15.024-6.74 15.024-15.024v-8.952c0-1.037-.84-1.878-1.878-1.878Z" fill="#2563eb" fill-rule="evenodd" data-name="Path 4"/><path d="M48.495 42.422v8.89c0 5.177-4.213 9.39-9.39 9.39-5.178 0-9.39-4.213-9.39-9.39v-12.27h-3.757v12.27c0 7.248 5.897 13.146 13.146 13.146 7.249 0 13.147-5.898 13.147-13.146v-8.89h-3.756Z" fill="#2563eb" fill-rule="evenodd" data-name="Path 5"/><path d="M50.373 30.278a6.956 6.956 0 0 0-6.949 6.948 6.957 6.957 0 0 0 6.949 6.95 6.958 6.958 0 0 0 6.949-6.95 6.957 6.957 0 0 0-6.949-6.948Zm0 10.141a3.197 3.197 0 0 1-3.194-3.192 3.196 3.196 0 0 1 3.194-3.193 3.196 3.196 0 0 1 3.192 3.193 3.196 3.196 0 0 1-3.192 3.192ZM20.7 13c-1.037 0-1.878.84-1.878 1.878v4.006a1.878 1.878 0 1 0 3.756 0v-4.006c0-1.037-.84-1.878-1.878-1.878Zm14.523 0c-1.037 0-1.878.84-1.878 1.878v4.006a1.878 1.878 0 1 0 3.756 0v-4.006c0-1.037-.84-1.878-1.878-1.878Z" fill="#2563eb" fill-rule="evenodd" data-name="Path 6"/></g></svg>