<svg xmlns="http://www.w3.org/2000/svg" width="90" height="90" viewBox="92.419 0 90 90"><g data-name="Icon"><path d="M112.419 0h50a20 20 0 0 1 20 20v50a20 20 0 0 1-20 20h-50a20 20 0 0 1-20-20V20a20 20 0 0 1 20-20z" fill="#2563eb" fill-rule="evenodd" data-name="Fill"/><g data-name="svgexport-7 - 2023-03-06T155134.438"><path d="M143.454 18.277h-6.83v4.269h4.695v8.04c0 7.062-5.745 12.807-12.807 12.807s-12.807-5.745-12.807-12.807v-8.04h4.553v-4.27h-6.688a2.134 2.134 0 0 0-2.134 2.135v10.175c0 9.416 7.66 17.077 17.076 17.077s17.076-7.66 17.076-17.077V20.411a2.134 2.134 0 0 0-2.134-2.134Z" fill="#fff" fill-rule="evenodd" data-name="Path 4"/><path d="M151.779 49.441v10.104c0 5.885-4.788 10.673-10.673 10.673s-10.673-4.788-10.673-10.673V45.599h-4.27v13.946c0 8.239 6.703 14.942 14.943 14.942 8.238 0 14.942-6.703 14.942-14.942V49.44h-4.27Z" fill="#fff" fill-rule="evenodd" data-name="Path 5"/><path d="M153.914 35.638c-4.356 0-7.899 3.543-7.899 7.898 0 4.354 3.543 7.898 7.898 7.898 4.355 0 7.898-3.544 7.899-7.898 0-4.355-3.544-7.898-7.898-7.898Zm0 11.527a3.633 3.633 0 0 1-3.63-3.63c0-2 1.628-3.628 3.63-3.628 2 0 3.628 1.628 3.628 3.629 0 2-1.628 3.629-3.629 3.629ZM120.186 16a2.134 2.134 0 0 0-2.134 2.135v4.553a2.134 2.134 0 1 0 4.269 0v-4.553A2.134 2.134 0 0 0 120.187 16Zm16.507 0a2.134 2.134 0 0 0-2.134 2.135v4.553a2.134 2.134 0 1 0 4.269 0v-4.553A2.134 2.134 0 0 0 136.694 16Z" fill="#fff" fill-rule="evenodd" data-name="Path 6"/></g></g></svg>