<svg xmlns="http://www.w3.org/2000/svg" width="90" height="90" viewBox="84.839 0 90 90"><g data-name="Icon"><path d="M104.839 0h50a20 20 0 0 1 20 20v50a20 20 0 0 1-20 20h-50a20 20 0 0 1-20-20V20a20 20 0 0 1 20-20z" fill="#2563eb" fill-rule="evenodd" data-name="Fill"/><g data-name="svgexport-6 - 2023-03-06T153745.799"><path d="M147.98 21.306h-5.736V18.74c0-.83-.905-1.207-1.735-1.207h-4.452c-1.057-3.019-3.698-4.528-6.717-4.528a6.867 6.867 0 0 0-6.716 4.528h-4.377c-.83 0-1.66.377-1.66 1.207v2.566h-5.735a6.414 6.414 0 0 0-6.339 6.112v43.24c0 3.32 3.019 5.735 6.34 5.735h37.126c3.32 0 6.34-2.415 6.34-5.735v-43.24a6.414 6.414 0 0 0-6.34-6.112Zm-28.374-.755h4.15a1.66 1.66 0 0 0 1.434-1.358 4.377 4.377 0 0 1 4.15-3.396 4.301 4.301 0 0 1 4.075 3.396 1.66 1.66 0 0 0 1.51 1.358h4.301v6.037h-19.62v-6.037ZM151.3 70.658c0 1.66-1.66 2.716-3.32 2.716h-37.128c-1.66 0-3.32-1.056-3.32-2.716v-43.24a3.396 3.396 0 0 1 3.32-3.094h5.735v3.849c.08.845.812 1.478 1.66 1.434h22.262a1.66 1.66 0 0 0 1.735-1.434v-3.849h5.735a3.396 3.396 0 0 1 3.32 3.094v43.24Z" fill="#fff" fill-rule="evenodd" data-name="Path 2"/><path d="M123.702 46.737a1.51 1.51 0 0 0-2.113-.076l-4.83 4.603-2.037-2.113a1.51 1.51 0 0 0-2.113-.075 1.585 1.585 0 0 0 0 2.188l3.094 3.17c.268.3.655.465 1.057.452a1.508 1.508 0 0 0 1.056-.452l5.886-5.584a1.434 1.434 0 0 0 0-2.113Zm21.658 3.244h-17.356a1.51 1.51 0 1 0 0 3.019h17.356a1.51 1.51 0 1 0 0-3.019Zm-21.658-15.318a1.51 1.51 0 0 0-2.113-.076l-4.83 4.603-2.037-2.113a1.51 1.51 0 0 0-2.113-.075 1.585 1.585 0 0 0 0 2.188l3.094 3.17c.268.3.655.465 1.057.453a1.51 1.51 0 0 0 1.056-.453l5.886-5.584a1.434 1.434 0 0 0 0-2.113Zm21.658 3.244h-17.356a1.51 1.51 0 1 0 0 3.019h17.356a1.51 1.51 0 1 0 0-3.019ZM123.702 58.81a1.51 1.51 0 0 0-2.113-.075l-4.83 4.603-2.037-2.113a1.51 1.51 0 0 0-2.113-.075 1.585 1.585 0 0 0 0 2.188l3.094 3.17c.268.3.655.465 1.057.452a1.508 1.508 0 0 0 1.056-.453l5.886-5.584a1.434 1.434 0 0 0 0-2.113Zm21.658 3.245h-17.356a1.51 1.51 0 1 0 0 3.019h17.356a1.51 1.51 0 1 0 0-3.019Z" fill="#fff" fill-rule="evenodd" data-name="Path 3"/></g></g></svg>