<svg xmlns="http://www.w3.org/2000/svg" width="90" height="90" viewBox="100 0 90 90"><g data-name="Icon"><path d="M120 0h50a20 20 0 0 1 20 20v50a20 20 0 0 1-20 20h-50a20 20 0 0 1-20-20V20a20 20 0 0 1 20-20z" fill="#2563eb" fill-rule="evenodd" data-name="Fill"/><g data-name="svgexport-7 - 2023-03-06T155533.437"><path d="M126.522 61.733H119.9a1.656 1.656 0 0 1 0-3.311h6.622a1.656 1.656 0 1 1 0 3.31Zm53.805 0h-4.139a1.656 1.656 0 0 1 0-3.311h2.765l2.232-11.894c-.03-6.085-5.229-11.284-11.619-11.284h-10.87l-5.268 23.178h9.516a1.656 1.656 0 0 1 0 3.31h-11.589a1.656 1.656 0 0 1-1.616-2.019l6.02-26.489a1.656 1.656 0 0 1 1.616-1.29h12.191c8.215 0 14.9 6.684 14.9 14.899l-2.513 13.549a1.652 1.652 0 0 1-1.626 1.35Z" fill="#fff" fill-rule="evenodd" data-name="Path 7"/><path d="M169.566 68.355c-4.563 0-8.278-3.712-8.278-8.278 0-4.566 3.715-8.277 8.278-8.277 4.563 0 8.278 3.711 8.278 8.277 0 4.566-3.715 8.278-8.278 8.278Zm0-13.244a4.973 4.973 0 0 0-4.967 4.966 4.973 4.973 0 0 0 4.967 4.967 4.973 4.973 0 0 0 4.967-4.967 4.973 4.973 0 0 0-4.967-4.966Zm-36.422 13.244c-4.563 0-8.278-3.712-8.278-8.278 0-4.566 3.715-8.277 8.278-8.277 4.563 0 8.278 3.711 8.278 8.277 0 4.566-3.715 8.278-8.278 8.278Zm0-13.244a4.973 4.973 0 0 0-4.966 4.966 4.973 4.973 0 0 0 4.966 4.967 4.973 4.973 0 0 0 4.967-4.967 4.973 4.973 0 0 0-4.967-4.966Zm-6.622-23.178h-13.244a1.656 1.656 0 1 1 0-3.31h13.244a1.656 1.656 0 0 1 0 3.31Zm0 9.933h-16.555a1.656 1.656 0 1 1 0-3.31h16.555a1.656 1.656 0 1 1 0 3.31Zm0 9.934h-19.866a1.656 1.656 0 1 1 0-3.311h19.866a1.656 1.656 0 1 1 0 3.31Z" fill="#fff" fill-rule="evenodd" data-name="Path 8"/><path d="M151.355 61.733h-11.589a1.656 1.656 0 0 1 0-3.311h10.268l7.523-33.111H119.9a1.656 1.656 0 1 1 0-3.311h39.733a1.656 1.656 0 0 1 1.616 2.02l-8.278 36.422a1.656 1.656 0 0 1-1.616 1.29Z" fill="#fff" fill-rule="evenodd" data-name="Path 9"/></g></g></svg>