<svg xmlns="http://www.w3.org/2000/svg" width="164" height="18" viewBox="4 16 164 18"><g data-name="Logo Frame"><g data-name="Logo"><g data-name="Logo"><path d="M34.455 18.491v2.994h-6.017v3.234h4.502v2.906h-4.502v6.206H24.84v-15.34h9.615ZM38.531 20.432c-.63 0-1.15-.188-1.556-.565a1.95 1.95 0 0 1-.59-1.436c0-.58.197-1.058.59-1.435.406-.392.925-.588 1.556-.588.618 0 1.122.196 1.515.588.407.377.61.855.61 1.435 0 .566-.203 1.044-.61 1.436-.393.377-.897.565-1.515.565Zm1.789 1.262v12.137h-3.598V21.694h3.598ZM48.617 30.465l2.546-8.373h3.829l-4.166 11.74h-4.439l-4.166-11.74h3.85l2.546 8.373ZM67.973 27.772c0 .337-.02.687-.063 1.052h-8.142c.057.73.288 1.29.695 1.683.42.379.932.568 1.536.568.897 0 1.521-.378 1.872-1.136H67.7a5.186 5.186 0 0 1-1.073 2.083 5.223 5.223 0 0 1-1.915 1.452c-.77.35-1.634.526-2.587.526-1.15 0-2.174-.246-3.072-.737a5.238 5.238 0 0 1-2.104-2.104c-.505-.911-.757-1.977-.757-3.197s.245-2.287.736-3.198a5.238 5.238 0 0 1 2.104-2.104c.898-.491 1.929-.737 3.093-.737 1.136 0 2.146.239 3.03.716a5.068 5.068 0 0 1 2.061 2.04c.505.884.757 1.915.757 3.093Zm-3.681-.947c0-.617-.21-1.108-.631-1.472-.421-.365-.947-.547-1.578-.547-.603 0-1.115.175-1.536.526-.407.35-.66.848-.758 1.493h4.503ZM69.66 26.14c0-1.513.316-2.86.948-4.04.63-1.193 1.507-2.117 2.63-2.773 1.136-.67 2.419-1.004 3.85-1.004 1.753 0 3.253.48 4.502 1.441 1.248.961 2.083 2.271 2.503 3.93h-3.955c-.294-.64-.715-1.127-1.262-1.462-.533-.335-1.143-.502-1.83-.502-1.109 0-2.006.4-2.694 1.2-.687.801-1.03 1.871-1.03 3.21 0 1.34.343 2.41 1.03 3.21.688.801 1.585 1.202 2.693 1.202.688 0 1.298-.168 1.83-.503.548-.334.969-.822 1.263-1.463h3.955c-.42 1.66-1.255 2.97-2.503 3.931-1.249.946-2.75 1.42-4.503 1.42-1.43 0-2.713-.328-3.85-.983a7.02 7.02 0 0 1-2.63-2.774c-.63-1.179-.946-2.525-.946-4.04ZM92.039 34c-1.15 0-2.188-.246-3.114-.737a5.481 5.481 0 0 1-2.167-2.104c-.519-.911-.778-1.977-.778-3.197 0-1.207.266-2.266.8-3.177a5.406 5.406 0 0 1 2.187-2.125c.926-.491 1.964-.737 3.114-.737s2.188.246 3.114.737c.925.49 1.655 1.199 2.188 2.125.533.911.8 1.97.8 3.177 0 1.206-.274 2.272-.821 3.197a5.41 5.41 0 0 1-2.21 2.104c-.925.491-1.963.737-3.113.737Zm0-3.114a2.31 2.31 0 0 0 1.746-.758c.491-.504.737-1.227.737-2.166 0-.94-.239-1.663-.716-2.167a2.245 2.245 0 0 0-1.725-.758c-.701 0-1.283.253-1.746.758-.463.49-.694 1.213-.694 2.167 0 .94.224 1.662.673 2.166a2.245 2.245 0 0 0 1.725.758ZM104.093 24.048c.42-.645.947-1.15 1.578-1.514a4.011 4.011 0 0 1 2.104-.568v3.808h-.99c-.897 0-1.57.196-2.019.589-.449.378-.673 1.052-.673 2.02v5.448h-3.598v-11.74h3.598v1.957ZM117.05 21.966c1.375 0 2.47.448 3.283 1.346.827.884 1.24 2.104 1.24 3.66v6.86h-3.576v-6.375c0-.786-.203-1.396-.61-1.83-.407-.436-.954-.653-1.64-.653-.688 0-1.235.217-1.642.652-.407.435-.61 1.045-.61 1.83v6.375h-3.598v-11.74h3.598v1.558a3.713 3.713 0 0 1 1.473-1.22c.617-.31 1.311-.463 2.083-.463ZM135.511 27.772c0 .337-.02.687-.063 1.052h-8.142c.057.73.288 1.29.695 1.683.42.379.932.568 1.535.568.898 0 1.522-.378 1.873-1.136h3.829a5.187 5.187 0 0 1-1.073 2.083 5.222 5.222 0 0 1-1.915 1.452c-.771.35-1.634.526-2.587.526-1.15 0-2.174-.246-3.072-.737a5.238 5.238 0 0 1-2.104-2.104c-.505-.911-.757-1.977-.757-3.197s.245-2.287.736-3.198a5.237 5.237 0 0 1 2.104-2.104c.898-.491 1.929-.737 3.093-.737 1.136 0 2.146.239 3.03.716a5.068 5.068 0 0 1 2.061 2.04c.505.884.757 1.915.757 3.093Zm-3.681-.947c0-.617-.21-1.108-.631-1.472-.421-.365-.947-.547-1.578-.547-.603 0-1.115.175-1.536.526-.407.35-.66.848-.758 1.493h4.503ZM141.424 24.048c.42-.645.947-1.15 1.578-1.514a4.01 4.01 0 0 1 2.104-.568v3.808h-.99c-.897 0-1.57.196-2.019.589-.449.378-.673 1.052-.673 2.02v5.448h-3.598v-11.74h3.598v1.957ZM159.396 27.077h-1.455v2.867h1.455c1.118 0 1.607-.608 1.607-1.455 0-.858-.478-1.412-1.607-1.412Zm0-.814c1.78 0 2.627.988 2.627 2.226 0 .966-.532 1.89-1.802 2.172l1.9 3.17h-1.183l-1.803-3.094h-1.194v3.094h-.989v-7.568h2.444ZM165.47 31.616l-1.357 2.215h-1.032l1.922-2.953-1.922-2.997h1.118l1.412 2.204 1.347-2.204h1.031l-1.91 2.942L168 33.831h-1.118l-1.412-2.215Z" fill="#f8fafc" fill-rule="evenodd" data-name="FiveCornerRx"/><path d="M7.542 33.66a3.533 3.533 0 0 1-3.099-1.856 3.645 3.645 0 0 1 .098-3.652l6.38-10.343c.656-1.15 1.865-1.843 3.158-1.808 1.3.03 2.478.78 3.074 1.955a3.644 3.644 0 0 1-.23 3.673l-6.379 10.343a3.531 3.531 0 0 1-3.002 1.688Z" fill="#f8fafc" fill-rule="evenodd" data-name="Vector"/></g><path d="M21.482 30.56a3.256 3.256 0 1 1-6.512 0 3.256 3.256 0 0 1 6.512 0Z" fill="#2563eb" fill-rule="evenodd" data-name="Vector"/><path d="M151.296 33.87c-.865 0-1.641-.139-2.327-.417-.686-.278-1.234-.69-1.644-1.234-.41-.545-.627-1.202-.65-1.97h3.07c.045.435.196.765.455.994.259.228.596.342 1.012.342.427 0 .765-.098 1.012-.292.247-.195.37-.465.37-.81a.953.953 0 0 0-.294-.717 2.384 2.384 0 0 0-.725-.467 11.751 11.751 0 0 0-1.223-.418c-.765-.233-1.389-.467-1.872-.7a3.45 3.45 0 0 1-1.248-1.035c-.349-.456-.523-1.051-.523-1.785 0-1.09.4-1.944 1.197-2.561.799-.618 1.839-.926 3.12-.926 1.305 0 2.356.308 3.154.926.799.617 1.226 1.476 1.282 2.578h-3.12c-.023-.379-.163-.676-.422-.893-.258-.217-.59-.326-.995-.326-.348 0-.63.092-.843.276-.214.183-.32.448-.32.792 0 .379.18.673.54.885.359.211.921.44 1.686.684.764.256 1.386.5 1.863.734a3.54 3.54 0 0 1 1.24 1.018c.348.445.523 1.018.523 1.718 0 .668-.172 1.274-.515 1.82-.343.544-.84.978-1.492 1.3-.652.323-1.422.484-2.31.484Z" fill="#f8fafc" fill-rule="evenodd" data-name="Path 93"/></g></g></svg>