<svg xmlns="http://www.w3.org/2000/svg" width="21.039" height="15.167" viewBox="148 4916 21.039 15.167"><g data-name="svgexport-16 (5)"><path d="M166.348 4931.168h-15.657a2.7 2.7 0 0 1-2.691-2.691v-9.786a2.7 2.7 0 0 1 2.691-2.691h15.657a2.7 2.7 0 0 1 2.691 2.691v9.786a2.7 2.7 0 0 1-2.691 2.69Zm-15.657-13.7c-.676 0-1.223.547-1.223 1.223v9.786c0 .675.547 1.223 1.223 1.223h15.657c.676 0 1.223-.548 1.223-1.223v-9.786c0-.676-.547-1.223-1.223-1.223h-15.657Z" fill="#fff" fill-rule="evenodd" data-name="Path 94"/><path d="M158.52 4924.905a3.18 3.18 0 0 1-1.615-.44l-8.543-5.08a.744.744 0 0 1-.264-.978.724.724 0 0 1 .978-.254l8.553 5.069a1.654 1.654 0 0 0 1.722 0l8.553-5.07a.724.724 0 0 1 .978.255.744.744 0 0 1-.264.979l-8.484 5.079a3.18 3.18 0 0 1-1.614.44Z" fill="#fff" fill-rule="evenodd" data-name="Path 95"/></g></svg>