<svg xmlns="http://www.w3.org/2000/svg" width="15.384" height="15.384" viewBox="0 7.484 15.384 15.384"><path d="M2.564 8.339h2.803a.855.855 0 0 1 .81.585l1.281 3.84a.855.855 0 0 1-.429 1.034l-1.93.966a9.438 9.438 0 0 0 4.715 4.714l.966-1.929a.854.854 0 0 1 1.034-.429l3.84 1.28a.854.854 0 0 1 .585.812v2.802a1.71 1.71 0 0 1-1.71 1.71h-.854c-7.08 0-12.82-5.74-12.82-12.82v-.856a1.71 1.71 0 0 1 1.71-1.709Z" stroke-linejoin="round" stroke-linecap="round" stroke-width="1.709" stroke="#fff" fill="transparent" data-name="Vector"/></svg>