  <svg xmlns="http://www.w3.org/2000/svg" width="17.094" height="17.094" viewBox="0 0 17.094 17.094">
  <g id="Frame" transform="translate(0 -7.484)">
    <path id="Vector" d="M1.709,0h2.8a.855.855,0,0,1,.81.585L6.6,4.425a.855.855,0,0,1-.429,1.034l-1.929.966A9.438,9.438,0,0,0,8.96,11.139L9.926,9.21a.855.855,0,0,1,1.034-.429l3.84,1.28a.855.855,0,0,1,.585.811v2.8a1.709,1.709,0,0,1-1.709,1.709H12.82A12.821,12.821,0,0,1,0,2.564V1.709A1.709,1.709,0,0,1,1.709,0Z" transform="translate(0.855 8.339)" fill="none" stroke="#0F172A" stroke-linecap="round" stroke-linejoin="round" stroke-width="1.709"/>
  </g>
</svg>
