<svg xmlns="http://www.w3.org/2000/svg" width="62.879" height="39.876" viewBox="4 19 62.879 39.876"><g data-name="svgexport-7 - 2023-03-06T155533.437"><path d="M21.03 53.636h-5.24a1.31 1.31 0 0 1 0-2.62h5.24a1.31 1.31 0 1 1 0 2.62Zm42.574 0H60.33a1.31 1.31 0 0 1 0-2.62h2.188l1.766-9.41c-.024-4.816-4.137-8.93-9.193-8.93h-8.602l-4.168 18.34h7.53a1.31 1.31 0 0 1 0 2.62h-9.17a1.31 1.31 0 0 1-1.279-1.598l4.763-20.96a1.31 1.31 0 0 1 1.279-1.021h9.647c6.5 0 11.79 5.29 11.79 11.79l-1.99 10.72a1.307 1.307 0 0 1-1.286 1.07Z" fill="#2563eb" fill-rule="evenodd" data-name="Path 7"/><path d="M55.09 58.876c-3.61 0-6.55-3.235-6.55-7.216 0-3.98 2.94-7.215 6.55-7.215s6.55 3.235 6.55 7.215-2.94 7.216-6.55 7.216Zm0-11.545c-2.167 0-3.93 1.942-3.93 4.33 0 2.386 1.763 4.329 3.93 4.329 2.166 0 3.93-1.943 3.93-4.33s-1.764-4.33-3.93-4.33ZM26.27 58.876c-3.61 0-6.55-3.235-6.55-7.216 0-3.98 2.94-7.215 6.55-7.215s6.55 3.235 6.55 7.215-2.94 7.216-6.55 7.216Zm0-11.545c-2.167 0-3.93 1.942-3.93 4.33 0 2.386 1.763 4.329 3.93 4.329 2.167 0 3.93-1.943 3.93-4.33s-1.763-4.33-3.93-4.33Zm-5.24-20.205H10.55c-.724 0-1.31-.646-1.31-1.443s.586-1.443 1.31-1.443h10.48c.723 0 1.31.646 1.31 1.443s-.587 1.443-1.31 1.443Zm0 8.66H7.93c-.724 0-1.31-.647-1.31-1.444 0-.797.586-1.443 1.31-1.443h13.1c.723 0 1.31.646 1.31 1.443s-.587 1.443-1.31 1.443Zm0 8.659H5.31C4.587 44.445 4 43.798 4 43c0-.797.587-1.443 1.31-1.443h15.72c.723 0 1.31.646 1.31 1.443s-.587 1.444-1.31 1.444Z" fill="#2563eb" fill-rule="evenodd" data-name="Path 8"/><path d="M40.68 53.636h-9.17c-.724 0-1.31-.646-1.31-1.443s.586-1.443 1.31-1.443h8.124l5.953-28.864H15.79c-.724 0-1.31-.646-1.31-1.443S15.066 19 15.79 19h31.44c.398 0 .774.2 1.023.542.249.342.343.79.255 1.219l-6.55 31.75c-.135.658-.666 1.126-1.278 1.125Z" fill="#2563eb" fill-rule="evenodd" data-name="Path 9"/></g></svg>