<svg xmlns="http://www.w3.org/2000/svg" width="32.071" height="32.071" viewBox="404 34.434 32.071 32.071"><g data-name="tick-circle-svgrepo-com"><path d="M420.036 66.505c-8.846 0-16.036-7.19-16.036-16.036 0-8.845 7.19-16.035 16.036-16.035 8.845 0 16.035 7.19 16.035 16.035 0 8.846-7.19 16.036-16.035 16.036Zm0-29.834c-7.608 0-13.798 6.19-13.798 13.798s6.19 13.798 13.798 13.798c7.607 0 13.798-6.19 13.798-13.798 0-7.607-6.19-13.798-13.798-13.798Z" fill="#2563eb" fill-rule="evenodd" data-name="Path 13"/><path d="M417.917 55.81c-.299 0-.582-.12-.79-.329l-4.222-4.221a1.125 1.125 0 0 1 0-1.581 1.125 1.125 0 0 1 1.58 0l3.432 3.43 7.667-7.667a1.125 1.125 0 0 1 1.581 0 1.125 1.125 0 0 1 0 1.582l-8.458 8.457a1.118 1.118 0 0 1-.79.329Z" fill="#2563eb" fill-rule="evenodd" data-name="Path 14"/></g></svg>